<?xml version="1.0" encoding="utf-8" ?>	<!-- Generator: Assembly 2.4 - http://assemblyapp.co -->	<svg version="1.1" xmlns="http://www.w3.org/2000/svg" xmlns:xlink="http://www.w3.org/1999/xlink" width="4096.00" height="4096.00" viewBox="0 0 4096.0 4096.0">		<g id="document" transform="scale(1.0 1.0) translate(2048.0 2048.0)">			<path d="M368.096,261.456 C512.494,-292.992 180.083,-859.52 -374.366,-1003.92 C-928.815,-1148.32 -1495.34,-815.905 -1639.74,-261.456 C-1784.14,292.992 -1451.73,859.52 -897.278,1003.92 C-342.83,1148.32 223.698,815.905 368.096,261.456 Z " fill="#f4dd4c" fill-opacity="1.00" />			<path d="M1637.03,257.741 C1781.43,-296.708 1449.02,-863.235 894.569,-1007.63 C340.121,-1152.03 -226.407,-819.62 -370.805,-265.172 C-515.204,289.277 -182.792,855.805 371.657,1000.2 C926.105,1144.6 1492.63,812.19 1637.03,257.741 Z " fill="#ff0002" fill-opacity="0.50" />			<path d="M-1521.62,-230.55 L-1427.76,-230.55 L-1427.76,302.12 L-1347.97,302.12 L-1347.97,-230.55 L-1256.85,-230.55 L-1256.85,-301.729 L-1521.62,-301.729 L-1521.62,-230.55 Z M-930.779,15.0571 C-930.779,-61.0759 -934.429,-118.958 -941.729,-158.589 C-949.03,-201.348 -960.763,-234.331 -976.928,-257.536 C-1001.44,-292.213 -1038.98,-309.551 -1089.56,-309.551 C-1146.14,-309.551 -1186.29,-287.129 -1210.02,-242.283 C-1233.49,-197.698 -1245.22,-121.696 -1245.22,-14.2749 C-1245.22,106.182 -1233.36,190.007 -1209.63,237.199 C-1185.64,285.434 -1144.32,309.551 -1085.65,309.551 C-1029.86,309.551 -990.095,287.129 -966.368,242.283 C-942.642,197.438 -930.779,121.696 -930.779,15.0571 Z M-1016.04,23.6612 C-1016.04,104.487 -1021.12,159.892 -1031.29,189.876 C-1041.46,220.121 -1060.23,235.243 -1087.61,235.243 C-1115.51,235.243 -1134.54,219.078 -1144.71,186.748 C-1154.62,152.592 -1159.57,91.3206 -1159.57,2.93321 C-1159.57,-93.0153 -1154.88,-156.894 -1145.49,-188.703 C-1135.84,-220.251 -1116.55,-236.025 -1087.61,-236.025 C-1058.67,-236.025 -1039.5,-218.817 -1030.12,-184.401 C-1020.73,-150.245 -1016.04,-80.8914 -1016.04,23.6612 Z M-574.596,15.0571 C-574.596,-61.0759 -578.246,-118.958 -585.547,-158.589 C-592.847,-201.348 -604.58,-234.331 -620.745,-257.536 C-645.254,-292.213 -682.799,-309.551 -733.38,-309.551 C-789.959,-309.551 -830.111,-287.129 -853.837,-242.283 C-877.303,-197.698 -889.036,-121.696 -889.036,-14.2749 C-889.036,106.182 -877.173,190.007 -853.446,237.199 C-829.459,285.434 -788.134,309.551 -729.469,309.551 C-673.673,309.551 -633.912,287.129 -610.186,242.283 C-586.459,197.438 -574.596,121.696 -574.596,15.0571 Z M-659.855,23.6612 C-659.855,104.487 -664.939,159.892 -675.107,189.876 C-685.276,220.121 -704.048,235.243 -731.425,235.243 C-759.323,235.243 -778.356,219.078 -788.525,186.748 C-798.432,152.592 -803.386,91.3206 -803.386,2.93321 C-803.386,-93.0153 -798.693,-156.894 -789.307,-188.703 C-779.66,-220.251 -760.366,-236.025 -731.425,-236.025 C-702.484,-236.025 -683.32,-218.817 -673.934,-184.401 C-664.548,-150.245 -659.855,-80.8914 -659.855,23.6612 Z M-563.359,-230.55 L-469.496,-230.55 L-469.496,302.12 L-389.713,302.12 L-389.713,-230.55 L-298.588,-230.55 L-298.588,-301.729 L-563.359,-301.729 L-563.359,-230.55 Z M104.813,140.207 L25.03,9.58181 C43.0204,-8.40853 57.882,-24.6389 69.6148,-39.1094 C81.3476,-53.5799 90.2125,-66.2905 96.2092,-77.2412 C108.985,-99.4032 115.373,-124.172 115.373,-151.549 C115.373,-183.619 104.944,-209.692 84.0853,-229.768 C63.4877,-249.583 35.9807,-259.491 1.56438,-259.491 C-32.5912,-259.491 -60.75,-248.801 -82.912,-227.421 C-104.813,-205.781 -115.764,-178.404 -115.764,-145.292 C-115.764,-100.707 -99.5987,-52.8629 -67.2682,-1.75992 C-98.2951,30.0491 -120.066,58.0775 -132.581,82.3254 C-145.096,106.313 -151.354,131.864 -151.354,158.98 C-151.354,199.132 -138.056,233.679 -111.462,262.62 C-84.346,291.3 -52.4067,305.64 -15.6438,305.64 C23.7264,305.64 58.2731,288.823 87.9962,255.189 L116.546,302.12 L205.716,302.12 L141.185,201.218 L205.716,111.266 L154.091,70.2015 L104.813,140.207 Z M-8.21298,-50.6467 C-30.6357,-94.1886 -41.8471,-125.998 -41.8471,-146.074 C-41.8471,-160.153 -37.154,-172.277 -27.7677,-182.446 C-18.1207,-192.875 -6.64861,-198.089 6.64861,-198.089 C19.4244,-198.089 29.7232,-193.722 37.5451,-184.988 C45.367,-176.253 49.2779,-164.455 49.2779,-149.594 C49.2779,-133.689 45.2366,-118.958 37.154,-105.4 C33.243,-98.621 27.507,-90.7339 19.9458,-81.7387 C12.3847,-72.7436 2.99839,-62.3796 -8.21298,-50.6467 Z M54.3621,199.263 C34.2859,224.814 13.8187,237.59 -7.0397,237.59 C-25.8122,237.59 -41.8471,229.507 -55.1443,213.342 C-68.4415,197.438 -75.0901,177.752 -75.0901,154.287 C-75.0901,125.085 -59.9678,93.7975 -29.7232,60.4241 L54.3621,199.263 Z M684.598,15.0571 C684.598,-61.0759 680.948,-118.958 673.647,-158.589 C666.347,-201.348 654.614,-234.331 638.449,-257.536 C613.94,-292.213 576.395,-309.551 525.813,-309.551 C469.235,-309.551 429.083,-287.129 405.356,-242.283 C381.891,-197.698 370.158,-121.696 370.158,-14.2749 C370.158,106.182 382.021,190.007 405.747,237.199 C429.735,285.434 471.06,309.551 529.724,309.551 C585.521,309.551 625.282,287.129 649.008,242.283 C672.735,197.438 684.598,121.696 684.598,15.0571 Z M599.339,23.6612 C599.339,104.487 594.255,159.892 584.087,189.876 C573.918,220.121 555.146,235.243 527.769,235.243 C499.871,235.243 480.838,219.078 470.669,186.748 C460.761,152.592 455.808,91.3206 455.808,2.93321 C455.808,-93.0153 460.501,-156.894 469.887,-188.703 C479.534,-220.251 498.828,-236.025 527.769,-236.025 C556.71,-236.025 575.874,-218.817 585.26,-184.401 C594.646,-150.245 599.339,-80.8914 599.339,23.6612 Z M695.835,-230.55 L789.698,-230.55 L789.698,302.12 L869.481,302.12 L869.481,-230.55 L960.606,-230.55 L960.606,-301.729 L695.835,-301.729 L695.835,-230.55 Z M930.779,-230.55 L1024.64,-230.55 L1024.64,302.12 L1104.42,302.12 L1104.42,-230.55 L1195.55,-230.55 L1195.55,-301.729 L930.779,-301.729 L930.779,-230.55 Z M1521.62,15.0571 C1521.62,-61.0759 1517.97,-118.958 1510.67,-158.589 C1503.37,-201.348 1491.63,-234.331 1475.47,-257.536 C1450.96,-292.213 1413.42,-309.551 1362.83,-309.551 C1306.26,-309.551 1266.1,-287.129 1242.38,-242.283 C1218.91,-197.698 1207.18,-121.696 1207.18,-14.2749 C1207.18,106.182 1219.04,190.007 1242.77,237.199 C1266.75,285.434 1308.08,309.551 1366.74,309.551 C1422.54,309.551 1462.3,287.129 1486.03,242.283 C1509.75,197.438 1521.62,121.696 1521.62,15.0571 Z M1436.36,23.6612 C1436.36,104.487 1431.28,159.892 1421.11,189.876 C1410.94,220.121 1392.17,235.243 1364.79,235.243 C1336.89,235.243 1317.86,219.078 1307.69,186.748 C1297.78,152.592 1292.83,91.3206 1292.83,2.93321 C1292.83,-93.0153 1297.52,-156.894 1306.91,-188.703 C1316.55,-220.251 1335.85,-236.025 1364.79,-236.025 C1393.73,-236.025 1412.89,-218.817 1422.28,-184.401 C1431.67,-150.245 1436.36,-80.8914 1436.36,23.6612 Z " fill="#ffffff" fill-opacity="1.00" />		</g>	</svg>